HIERARCHY
ROOT Hips
{
	OFFSET -3.958830 18.904000 13.208200
	CHANNELS 6 Xposition Yposition Zposition Zrotation Yrotation Xrotation 
	JOINT LHipJoint
	{
		OFFSET 0.000000 0.000000 0.000000
		CHANNELS 3 Zrotation Yrotation Xrotation
		JOINT LeftUpLeg
		{
			OFFSET 1.800000 -1.400000 0.085000
			CHANNELS 3 Zrotation Yrotation Xrotation
			JOINT LeftLeg
			{
				OFFSET 2.215000 -6.000000 0.000000
				CHANNELS 3 Zrotation Yrotation Xrotation
				JOINT LeftFoot
				{
					OFFSET 2.500000 -6.900000 0.000000
					CHANNELS 3 Zrotation Yrotation Xrotation
					JOINT LeftToeBase
					{
						OFFSET 0.200000 -0.500000 1.950000
						CHANNELS 3 Zrotation Yrotation Xrotation
						End Site
						{
							OFFSET 0.000000 0.000000 0.000000
						}
					}
				}
			}
		}
	}
	JOINT RHipJoint
	{
		OFFSET 0.000000 0.000000 0.000000
		CHANNELS 3 Zrotation Yrotation Xrotation
		JOINT RightUpLeg
		{
			OFFSET -1.800000 -1.400000 0.085000
			CHANNELS 3 Zrotation Yrotation Xrotation
			JOINT RightLeg
			{
				OFFSET -2.215000 -6.000000 0.000000
				CHANNELS 3 Zrotation Yrotation Xrotation
				JOINT RightFoot
				{
					OFFSET -2.500000 -6.900000 0.000000
					CHANNELS 3 Zrotation Yrotation Xrotation
					JOINT RightToeBase
					{
						OFFSET -0.200000 -0.500000 1.950000
						CHANNELS 3 Zrotation Yrotation Xrotation
						End Site
						{
							OFFSET 0.000000 0.000000 0.000000
						}
					}
				}
			}
		}
	}
	JOINT LowerBack
	{
		OFFSET 0.000000 0.000000 0.000000
		CHANNELS 3 Zrotation Yrotation Xrotation
		JOINT Spine
		{
			OFFSET -0.087000 1.940000 -0.288900
			CHANNELS 3 Zrotation Yrotation Xrotation
			JOINT Spine1
			{
				OFFSET 0.000000 1.950000 0.060000
				CHANNELS 3 Zrotation Yrotation Xrotation
				JOINT Neck
				{
					OFFSET 0.000000 0.000000 0.000000
					CHANNELS 3 Zrotation Yrotation Xrotation
					JOINT Neck1
					{
						OFFSET 0.000000 1.600000 0.340000
						CHANNELS 3 Zrotation Yrotation Xrotation
						JOINT Head
						{
							OFFSET 0.000000 1.667000 -0.240000
							CHANNELS 3 Zrotation Yrotation Xrotation
							End Site
							{
								OFFSET 0.000000 0.000000 0.000000
							}
						}
					}
				}
				JOINT LeftShoulder
				{
					OFFSET 0.000000 0.000000 0.000000
					CHANNELS 3 Zrotation Yrotation Xrotation
					JOINT LeftArm
					{
						OFFSET 2.700000 1.550000 -0.730000
						CHANNELS 3 Zrotation Yrotation Xrotation
						JOINT LeftForeArm
						{
							OFFSET 5.450000 0.000000 0.000000
							CHANNELS 3 Zrotation Yrotation Xrotation
							JOINT LeftHand
							{
								OFFSET 3.450000 0.000000 0.000000
								CHANNELS 3 Zrotation Yrotation Xrotation
								JOINT LeftHandIndex1
								{
									OFFSET 0.750000 0.000000 0.000000
									CHANNELS 3 Zrotation Yrotation Xrotation
									End Site
									{
										OFFSET 0.000000 0.000000 0.000000
									}
								}
							}
						}
					}
				}
				JOINT RightShoulder
				{
					OFFSET 0.000000 0.000000 0.000000
					CHANNELS 3 Zrotation Yrotation Xrotation
					JOINT RightArm
					{
						OFFSET -2.700000 1.550000 -0.730000
						CHANNELS 3 Zrotation Yrotation Xrotation
						JOINT RightForeArm
						{
							OFFSET -5.450000 0.000000 0.000000
							CHANNELS 3 Zrotation Yrotation Xrotation
							JOINT RightHand
							{
								OFFSET -3.450000 0.000000 0.000000
								CHANNELS 3 Zrotation Yrotation Xrotation
								JOINT RightHandIndex1
								{
									OFFSET -0.750000 0.000000 0.000000
									CHANNELS 3 Zrotation Yrotation Xrotation
									End Site
									{
										OFFSET 0.000000 0.000000 0.000000
									}
								}
							}
						}
					}
				}
			}
		}
	}
}
MOTION
Frames: 12
Frame Time: 0.016667
0.622380 17.276170 -0.804180 -1.868188 -10.411159 4.374048 -14.720657 13.430708 3.320785 18.556206 -0.445876 -5.846509 -9.973132 6.349083 5.069720 0.469668 4.417464 3.029878 0.346300 0.203900 0.236990 18.292360 -9.900066 4.424401 -21.048601 3.321595 -23.420985 23.225219 -4.594884 2.108070 -0.343329 -3.616164 3.086467 -0.108220 -0.167730 -0.030860 -4.033630 -2.150944 -9.266648 17.996609 -1.143384 10.805640 -16.244666 0.113677 -25.985495 4.727337 -7.640913 -15.079844 -17.895157 8.038882 65.125269 8.110830 -6.079290 3.650940 -10.426774 8.324614 1.031818 -31.147405 12.449204 -1.989961 26.488083 -3.193295 1.835759 -3.531368 2.807681 0.387320 -0.274590 0.192870 0.125320 -0.494284 6.536310 10.463606 28.921136 0.798463 -1.442333 -16.328116 -2.873412 1.488504 3.120504 -1.209800 0.123030 -0.060660 -0.270890 0.008750 
0.523910 17.282940 -0.749330 -1.741900 -11.036170 7.075225 -14.741645 13.447204 3.325990 18.291248 -0.874926 -8.282226 -9.780168 6.229091 5.511818 0.481748 4.175250 3.102155 0.297700 0.144330 0.202850 18.269924 -9.782404 4.601146 -21.036681 3.528388 -26.235260 24.520203 -4.885662 2.616434 -0.321494 -3.590267 3.103813 -0.173000 -0.174060 -0.023680 -3.936173 -2.309556 -9.435304 16.621482 -0.850986 9.721230 -15.192209 -0.282537 -30.161474 4.576699 -6.890058 -14.653088 -16.714350 6.573572 63.311207 8.266930 -7.280890 4.905170 -4.975189 12.074405 0.798123 -33.532457 12.916482 -2.288942 25.291452 -5.540696 1.901100 -3.526835 2.797623 0.364270 -0.275760 0.188550 0.131450 -5.243666 2.283319 9.560641 31.455522 -1.878739 -2.564290 -15.260191 1.435687 1.106729 3.111060 -1.197024 0.144660 -0.109780 -0.281620 0.026780 
0.375760 17.263080 -0.693710 -2.009377 -12.464379 9.620132 -14.745484 13.355630 3.371316 18.862248 -1.349325 -9.905837 -9.913534 6.181203 5.244782 0.560283 4.108890 3.167935 0.173600 -0.000720 0.112630 18.307441 -9.653128 4.681994 -20.464334 3.793784 -29.860002 25.876269 -5.784788 4.996350 -0.233827 -3.669058 3.124281 -0.268890 -0.112030 -0.049070 -3.969544 -2.373780 -9.494887 16.168391 -1.103385 8.247157 -14.804921 -0.621810 -31.834131 4.458066 -6.074427 -14.171502 -15.263236 4.561493 57.808365 6.878720 -8.215760 9.821230 -0.594166 15.080034 0.531470 -34.265198 13.477269 -3.202511 23.094899 -7.692333 1.808575 -3.561645 2.813337 0.267240 -0.215900 0.100360 0.148620 -9.167642 -1.797214 9.035978 33.323667 -6.863043 -4.646216 -14.357035 8.127469 0.608798 3.068712 -1.269882 0.127680 -0.157210 -0.283500 0.058160 
0.207140 17.237090 -0.655400 -2.461329 -16.083517 12.089085 -14.766209 13.249713 3.412964 19.356116 -1.665781 -10.467803 -10.545189 6.293403 4.920959 0.684322 4.173825 3.170776 0.046770 -0.137590 -0.000150 18.346451 -9.494966 4.749885 -18.939062 4.598640 -33.805705 26.442642 -6.567687 7.771415 -0.136609 -3.720143 3.138495 -0.368870 -0.044040 -0.017950 -3.972162 -2.411053 -9.473099 15.896755 -1.706428 7.127653 -14.209341 -0.900539 -32.812229 4.326311 -5.607746 -13.438605 -13.629625 3.246929 50.929639 4.978910 -7.209540 14.612150 2.901704 18.167153 0.360027 -34.671900 15.594030 -4.373642 21.926434 -7.998865 2.004478 -3.662092 2.911072 0.137980 -0.129440 0.010460 0.153550 -12.441075 -5.456904 8.275326 34.401541 -9.047836 -5.950954 -13.965466 8.565892 0.591590 3.144750 -1.354260 0.149490 -0.261800 -0.261650 0.102300 
0.029030 17.218510 -0.626640 -3.005080 -20.307625 13.558278 -14.764773 13.212127 3.352230 19.496916 -1.913663 -9.978737 -10.410880 6.332108 4.997565 0.741563 4.245227 3.203325 -0.068390 -0.276060 -0.074960 18.399658 -9.411559 4.795021 -16.783181 5.544748 -37.099171 26.470825 -7.559622 11.341523 -0.073304 -3.829671 3.141238 -0.448720 0.039710 -0.011290 -4.033040 -2.421659 -9.349360 16.200916 -2.399944 6.691945 -15.632361 -1.539749 -33.298865 4.645774 -4.220963 -12.713511 -10.302924 1.935419 45.691694 4.001350 -6.018200 18.096410 4.774660 19.476642 0.286622 -32.614619 17.124072 -4.929886 21.924971 -5.738094 2.379976 -3.785442 2.920241 0.065910 -0.047400 -0.070660 0.155900 -15.026372 -8.261833 7.856451 36.378143 -11.883607 -7.528381 -12.054812 3.245405 0.844101 3.281799 -1.272514 0.120060 -0.298590 -0.236920 0.116240 
-0.138690 17.222630 -0.614560 -3.574713 -22.949446 13.905532 -14.775750 13.366311 3.371331 19.805682 -2.173154 -9.796186 -9.926893 6.347080 5.457704 0.751303 4.262015 3.214472 -0.104140 -0.319580 -0.088250 18.384422 -9.430657 4.675163 -13.608651 6.137486 -37.960779 24.618226 -8.005672 14.217413 -0.027120 -3.695092 3.216893 -0.473490 0.048930 -0.036830 -3.974274 -2.719474 -9.230183 16.483340 -3.605190 7.182393 -15.535626 -2.224491 -33.991675 4.848315 -4.167604 -12.418242 -10.385400 1.824054 44.088991 3.929900 -5.869410 19.151100 5.061185 20.823393 0.043496 -31.914290 18.365452 -5.003744 23.715593 -3.648228 2.910405 -3.813577 2.890173 0.065790 -0.045060 -0.086120 0.156790 -15.366977 -10.200015 7.711572 35.160223 -15.377071 -8.319360 -12.710529 1.611161 1.127898 3.358000 -1.217182 0.095050 -0.296780 -0.242630 0.114060 
-0.315220 17.232430 -0.590180 -3.747969 -26.532759 13.822326 -14.763103 13.539621 3.292712 19.136261 -2.204881 -9.331797 -9.245252 6.371013 6.345367 0.745111 4.242283 3.247693 -0.176440 -0.399890 -0.147950 18.392369 -9.477199 4.617496 -11.024428 6.691286 -38.064529 23.692727 -8.652542 17.097459 -0.017221 -3.773511 3.218607 -0.519820 0.103540 -0.054180 -3.985939 -2.946304 -9.056509 16.915633 -4.156917 7.458942 -15.729859 -2.508458 -34.279204 4.794298 -4.854001 -12.328688 -12.004395 2.543410 42.699261 4.769100 -6.119120 19.943170 5.164408 21.789622 -0.264236 -30.122447 18.747652 -5.092454 23.161546 -1.052185 3.078323 -3.868936 2.817177 0.064380 -0.027810 -0.119900 0.144320 -14.909888 -11.356563 8.012858 34.880069 -20.787183 -9.381122 -14.922943 4.734700 1.187129 3.330680 -1.213087 0.066870 -0.265430 -0.193310 0.121840 
-0.491220 17.236030 -0.576460 -3.519470 -29.152240 12.947265 -14.707277 13.965907 3.046452 18.018495 -2.207119 -9.494873 -6.622225 6.512767 10.803538 0.666297 4.116090 3.278625 -0.192960 -0.423280 -0.149330 18.380089 -9.780872 4.517204 -7.793105 6.670402 -36.797783 20.215417 -7.500669 16.521063 0.089330 -3.199098 3.439171 -0.528350 0.103370 -0.057880 -3.942356 -3.062748 -8.825815 16.174914 -5.095205 7.780342 -15.237103 -3.384785 -34.259327 4.827765 -4.878983 -11.982109 -12.138634 2.913706 42.249072 4.592080 -5.324740 20.410190 4.392757 22.601221 -0.222480 -28.745839 21.221509 -5.173548 23.727945 -2.993301 2.843853 -3.859598 2.831501 0.079290 -0.024950 -0.121740 0.131560 -14.079832 -12.852820 7.952273 33.973596 -23.879755 -9.562887 -16.830107 6.729142 1.243425 3.324339 -1.242303 0.051570 -0.264420 -0.178960 0.107640 
-0.669370 17.250620 -0.572430 -3.930447 -32.442090 12.798454 -14.666539 14.361672 2.845158 17.009572 -2.310825 -10.976414 -3.606800 6.538001 16.393298 0.627027 4.077616 3.265710 -0.194540 -0.424740 -0.143990 18.361851 -9.990264 4.491082 -4.421366 6.848315 -35.314700 17.834318 -6.707137 16.131050 0.138701 -2.774896 3.619816 -0.542320 0.092000 -0.064400 -3.862655 -3.286076 -8.665767 15.848264 -6.153865 8.304884 -14.669725 -3.943860 -35.073919 4.997046 -5.052723 -12.110300 -12.543434 3.661060 42.357167 5.322140 -4.862660 20.170070 6.500411 24.515485 -0.491157 -29.704431 21.102246 -5.274030 25.735527 -2.024720 3.299245 -3.884545 2.791537 0.107770 -0.043200 -0.098990 0.132240 -16.219998 -14.589564 8.119959 34.222804 -25.947200 -10.724785 -14.891365 13.518624 0.770866 3.220315 -1.298651 0.050710 -0.257390 -0.184290 0.103650 
-0.868850 17.303120 -0.583020 -4.155437 -38.423413 12.542515 -14.651284 14.774789 2.796026 15.132842 -2.316503 -11.996419 -0.813817 6.556064 22.654737 0.594848 4.363799 3.137544 -0.187200 -0.430360 -0.095440 18.298733 -10.161100 4.521733 -0.388650 7.113047 -33.050931 14.674319 -5.568894 15.232015 0.186217 -2.233218 3.822006 -0.540790 0.065260 -0.081570 -3.622719 -3.600491 -8.710566 13.878755 -5.324687 9.238986 -12.754665 -3.603735 -37.582109 5.709527 -5.252214 -12.336543 -14.131150 5.568358 45.661369 5.762450 -3.719940 19.741480 7.047253 26.818120 -0.865537 -27.623921 21.967560 -3.922632 28.979833 -3.784148 3.668530 -3.907949 2.735300 0.179060 -0.076890 -0.062840 0.098960 -16.800615 -16.611566 8.134212 28.763283 -27.981724 -10.018011 -6.450190 15.853529 0.959822 3.067421 -1.239836 0.024190 -0.217740 -0.165920 0.065620 
-1.053270 17.346660 -0.640270 -3.719814 -44.971466 11.486313 -14.626740 14.915456 2.830888 12.712019 -2.591280 -13.129259 1.556703 6.487600 29.370660 0.685593 4.834143 2.938285 -0.077440 -0.315410 0.011370 18.285160 -10.362731 4.511667 2.610551 6.957518 -31.164544 11.633478 -4.921840 15.912008 0.143798 -1.965544 3.913786 -0.503740 -0.031930 -0.084800 -3.552421 -3.536733 -8.689231 11.895873 -5.375388 10.073263 -11.799458 -4.022459 -38.217566 5.853839 -5.356444 -12.986303 -15.225638 7.754410 48.097536 7.391190 -2.217170 18.680190 8.621986 27.687386 -0.063036 -26.840281 24.825071 -4.215574 28.945099 -7.383436 3.116611 -3.788681 2.780924 0.254870 -0.156490 0.035290 0.120450 -17.932815 -17.886639 7.935054 29.267159 -29.360354 -10.654016 -5.880542 17.061414 1.108415 3.077128 -1.269772 0.056740 -0.234380 -0.251820 0.044860 
-1.228070 17.386000 -0.712620 -2.161449 -52.294420 9.628964 -14.657838 14.859074 3.046163 9.772737 -3.304189 -14.729022 3.115494 6.512540 36.449767 0.841154 5.593096 2.639838 0.032470 -0.165730 0.060060 18.230453 -10.555573 4.433957 4.390244 6.306390 -29.114053 9.455156 -4.410480 15.898814 0.083524 -1.799815 3.962494 -0.438010 -0.092990 -0.087370 -3.410424 -3.346695 -8.703620 8.695419 -4.922347 10.934135 -9.152451 -4.419947 -39.308502 5.849855 -6.542464 -13.421571 -19.070867 11.368239 49.679398 10.519990 -1.373830 16.412830 8.791468 28.278083 0.527965 -27.995313 26.129283 -3.827191 32.325923 -6.506923 3.751638 -3.711385 2.788703 0.315670 -0.231270 0.124250 0.156360 -16.886807 -18.725468 7.449189 26.520865 -30.236382 -9.423855 -8.830556 17.932527 1.344652 3.159385 -1.339405 0.093020 -0.222690 -0.311440 0.054210 
